<svg width="523" height="90" viewBox="0 0 523 90" fill="none" xmlns="http://www.w3.org/2000/svg">
<path d="M83.0051 38.0745C81.6285 30.8623 78.5684 24.0762 74.0732 18.2675C79.1499 12.1997 85.2446 7.06059 92.0847 3.07996C117.001 60.0331 71.3282 86.2526 71.3282 86.2526H70.547C81.5481 73.6596 85.8557 57.08 83.0051 38.0745Z" fill="#FF93C7"/>
<path d="M11.8246 56.7407C22.5182 57.1148 32.9724 60.0058 42.3364 65.1782C40.9648 62.4525 39.9092 59.5792 39.1902 56.6142C34.9671 39.0853 40.8161 17.2532 47.024 0.631348C55.9136 3.71104 65.4578 11.6212 72.0247 20.797C75.9932 26.0216 78.6962 32.0936 79.9218 38.5368C83.1736 60.1157 76.6701 75.7462 66.1124 86.4829L65.6478 86.9681C65.6478 86.9681 43.6878 90.7017 26.5209 82.686C6.65128 73.3626 1.68915 57.8165 1.68915 57.8165C5.00132 56.9901 8.41249 56.628 11.8246 56.7407Z" fill="#419FB9"/>
<path d="M72.0251 20.7971L71.6661 20.2909C61.278 34.5473 55.8023 51.7867 56.0618 69.4182C56.0547 75.5837 56.6845 81.7335 57.9411 87.7698C60.5214 87.6593 63.094 87.4129 65.6482 87.0315C65.8172 86.8839 65.965 86.694 66.1339 86.5253C76.6916 75.7464 83.1741 60.1159 79.9223 38.537C78.6966 32.0938 75.9936 26.0218 72.0251 20.7971Z" fill="#265E6C"/>
<path d="M154.607 66.348L152.032 39.6682L143.171 66.348H134.711L125.45 39.3244L123.219 66.348H114.759L119.333 25.8429C120.535 25.216 122.478 24.6416 123.851 24.6416C127.053 24.6416 129.453 25.6124 130.424 28.468L139.974 56.9194L149.749 25.9562C150.952 25.1553 152.551 24.6416 154.093 24.6416C157.351 24.6416 158.95 25.7822 159.468 29.8392L164.043 66.3439H154.607V66.348Z" fill="#419FB9"/>
<path d="M191.136 58.0084L194.621 63.5499C191.075 65.7786 187.133 66.9192 182.332 66.9192C173.24 66.9192 167.869 61.6043 167.869 52.5802C167.869 42.7553 173.528 36.87 183.19 36.87C190.452 36.87 194.682 40.5265 194.682 46.5251C194.682 52.2971 189.367 55.7231 180.502 55.7231C179.243 55.7231 177.988 55.6098 176.729 55.4925C177.357 58.5221 179.243 60.2897 182.959 60.2897C186.218 60.2938 188.845 59.4929 191.136 58.0084ZM176.555 50.5254C177.871 50.6387 179.187 50.6953 180.385 50.6953C184.044 50.6953 186.1 49.3241 186.1 46.9255C186.1 44.984 184.728 43.726 182.328 43.726C179.126 43.726 177.013 46.2379 176.555 50.5254Z" fill="#419FB9"/>
<path d="M201.135 80.0603L197.189 73.718C198.905 73.0911 200.16 71.2062 200.16 67.6062V37.4439H209.021V69.208C209.025 75.433 205.596 78.3453 201.135 80.0603ZM204.568 32.9864C207.6 32.9864 209.486 31.2714 209.486 28.2459C209.486 25.277 207.6 23.6186 204.568 23.6186C201.536 23.6186 199.65 25.277 199.65 28.2459C199.65 31.2714 201.536 32.9864 204.568 32.9864Z" fill="#419FB9"/>
<path d="M213.476 51.8966C213.476 42.4721 219.135 36.87 228.854 36.87C238.573 36.87 244.292 42.4681 244.292 51.8966C244.292 61.3251 238.577 66.9232 228.854 66.9232C219.131 66.9232 213.476 61.3211 213.476 51.8966ZM235.314 51.8966C235.314 46.8688 232.914 43.8433 228.91 43.8433C224.907 43.8433 222.507 46.8729 222.507 51.8966C222.507 56.9243 224.907 59.8932 228.91 59.8932C232.914 59.8932 235.314 56.9243 235.314 51.8966Z" fill="#419FB9"/>
<path d="M269.545 37.8408L266.971 45.6675C265.999 45.0406 264.74 44.6401 263.368 44.6401C259.709 44.6401 257.421 47.0954 257.421 54.2385V66.3488H248.561V38.0713C250.103 37.3837 251.762 36.87 253.305 36.87C255.705 36.87 257.134 38.9248 257.134 41.8977C259.251 38.1846 262.166 36.87 265.137 36.87C266.683 36.87 268.229 37.2704 269.545 37.8408Z" fill="#419FB9"/>
<path d="M287.388 66.9247C278.013 66.9247 272.407 61.3266 272.407 51.8415C272.407 42.4169 278.584 36.8755 286.643 36.8755C290.189 36.8755 295.905 38.3033 297.735 44.9895L291.274 47.562C290.529 45.3333 289.157 43.8488 287.101 43.8488C283.498 43.8488 281.385 46.8218 281.385 51.8455C281.385 56.9299 283.96 59.8988 288.129 59.8988C290.817 59.8988 293.905 58.928 295.905 57.4436L298.706 63.612C295.565 65.8973 291.335 66.9247 287.388 66.9247Z" fill="#265E6C"/>
<path d="M299.896 51.8926C299.896 42.4681 305.555 36.866 315.274 36.866C324.993 36.866 330.713 42.4641 330.713 51.8926C330.713 61.3211 324.993 66.9192 315.274 66.9192C305.555 66.9192 299.896 61.3171 299.896 51.8926ZM321.735 51.8926C321.735 46.8649 319.334 43.8393 315.331 43.8393C311.327 43.8393 308.927 46.8689 308.927 51.8926C308.927 56.9204 311.327 59.8893 315.331 59.8893C319.334 59.8893 321.735 56.9204 321.735 51.8926Z" fill="#265E6C"/>
<path d="M363.052 47.7224V66.3448H354.191V49.2635C354.191 45.9507 352.762 43.8353 350.074 43.8353C346.245 43.8353 343.845 45.8901 343.845 51.9493V66.3448H334.984V38.0673C336.526 37.3797 338.185 36.866 339.728 36.866C342.015 36.866 343.444 38.7509 343.557 41.55C346.014 38.0633 349.39 36.866 352.932 36.866C359.336 36.866 363.052 40.8664 363.052 47.7224Z" fill="#265E6C"/>
<path d="M397.269 28.6433L393.383 34.929C390.926 33.214 387.55 31.9601 384.178 31.9601C381.033 31.9601 379.146 33.3313 379.146 35.5033C379.146 38.4156 382.461 39.5603 386.465 40.9881C391.897 42.9297 398.301 45.3889 398.301 53.6121C398.301 62.0658 392.468 66.9237 382.579 66.9237C377.147 66.9237 372.115 65.3826 368.456 62.6402L371.37 56.128C374.171 58.3001 378.231 59.6146 383.032 59.6146C386.748 59.6146 388.922 58.0736 388.922 55.501C388.922 52.2449 385.607 51.0436 381.773 49.7331C376.341 47.8482 369.767 45.5062 369.767 36.822C369.767 28.9386 375.082 24.6551 384.004 24.6551C388.521 24.647 393.322 25.9616 397.269 28.6433Z" fill="#FF93C7"/>
<path d="M428.024 47.731V65.7266C426.482 66.4102 424.879 66.9279 423.28 66.9279C421.049 66.9279 419.62 65.0996 419.45 62.4705C417.107 65.7832 413.961 66.9279 410.816 66.9279C405.044 66.9279 401.555 63.5586 401.555 58.0737C401.555 52.0186 406.643 48.4753 415.621 48.4753C416.763 48.4753 417.965 48.4753 419.167 48.5319C418.997 45.389 417.851 43.5041 414.135 43.5041C411.622 43.5041 409.047 44.305 406.76 45.7895L403.214 40.3047C406.874 38.0759 410.82 36.8787 415.621 36.8787C423.45 36.8746 428.024 40.875 428.024 47.731ZM419.159 53.6122C417.957 53.5556 416.872 53.5556 415.844 53.5556C412.071 53.5556 409.954 54.9268 409.954 57.2688C409.954 59.0971 410.982 60.4117 413.269 60.4117C416.301 60.4117 419.159 58.5268 419.159 53.6122Z" fill="#FF93C7"/>
<path d="M434.25 58.526V22.992C435.792 22.3084 437.452 21.7906 438.994 21.7906C441.625 21.7906 443.111 23.5057 443.111 25.9043V57.7817C443.111 59.1529 443.856 59.8972 445.167 59.8972C446.082 59.8972 446.94 59.7273 447.624 59.4967L448.77 65.0948C446.827 66.3527 444.823 66.9231 442.366 66.9231C437.282 66.9231 434.25 63.8975 434.25 58.526Z" fill="#FF93C7"/>
<path d="M482.825 40.9875V65.7258C481.283 66.4093 479.623 66.9271 478.081 66.9271C475.794 66.9271 474.422 65.0422 474.252 62.3564C471.965 65.7258 468.763 66.9271 465.448 66.9271C459.044 66.9271 455.328 62.9267 455.328 56.0707V38.0752C456.87 37.3876 458.53 36.8739 460.072 36.8739C462.703 36.8739 464.189 38.5889 464.189 40.9875V54.469C464.189 57.8383 465.618 59.8971 468.305 59.8971C471.851 59.8971 473.964 57.8424 473.964 51.9005V38.0752C475.507 37.3876 477.166 36.8739 478.708 36.8739C481.34 36.8739 482.825 38.5889 482.825 40.9875Z" fill="#FF93C7"/>
<path d="M517.241 25.9035V65.7211C515.699 66.4046 514.039 66.9224 512.497 66.9224C510.267 66.9224 508.838 65.0375 508.668 62.4083C506.211 65.7777 502.721 66.9224 499.236 66.9224C492.545 66.9224 488.145 61.7247 488.145 52.8665C488.145 42.7544 494.091 36.8691 504.154 36.8691C505.239 36.8691 506.729 36.9258 508.385 36.9824V22.9872C509.927 22.3036 511.586 21.7859 513.129 21.7859C515.752 21.7899 517.241 23.5049 517.241 25.9035ZM508.376 43.4986C507.061 43.442 505.919 43.442 504.948 43.442C500.147 43.442 497.115 46.9287 497.115 52.8665C497.115 57.3239 499.058 59.949 502.547 59.949C505.98 59.949 508.381 57.9509 508.381 51.8917V43.4986H508.376Z" fill="#FF93C7"/>
</svg>
