<svg width="20" height="20" viewBox="0 0 20 20" fill="none" xmlns="http://www.w3.org/2000/svg">
<path d="M14 0H6C2.691 0 0 2.691 0 6V19C0 19.553 0.447 20 1 20H14C17.309 20 20 17.309 20 14V6C20 2.691 17.309 0 14 0ZM18 14C18 16.206 16.206 18 14 18H2V6C2 3.794 3.794 2 6 2H14C16.206 2 18 3.794 18 6V14Z" fill="black"/>
<path d="M13.292 5.29498L10 8.58698L6.70801 5.29498L5.29401 6.70898L8.58601 10.001L5.29401 13.293L6.70801 14.707L10 11.415L13.292 14.707L14.706 13.293L11.414 10.001L14.706 6.70898L13.292 5.29498Z" fill="black"/>
</svg>
