<svg width="20" height="20" viewBox="0 0 20 20" fill="none" xmlns="http://www.w3.org/2000/svg">
<path d="M14 0H6C2.691 0 0 2.691 0 6V19C0 19.553 0.447 20 1 20H14C17.309 20 20 17.309 20 14V6C20 2.691 17.309 0 14 0ZM18 14C18 16.206 16.206 18 14 18H2V6C2 3.794 3.794 2 6 2H14C16.206 2 18 3.794 18 6V14Z" fill="black"/>
<path d="M5 12.987V14.986H6.999L12.528 9.464L10.53 7.466L5 12.987Z" fill="black"/>
<path d="M13.4706 8.52173L11.4716 6.5227L12.9955 4.99891L14.9944 6.99794L13.4706 8.52173Z" fill="black"/>
</svg>
