<svg width="18" height="20" viewBox="0 0 18 20" fill="none" xmlns="http://www.w3.org/2000/svg">
<path d="M16 0H2C0.897 0 0 0.897 0 2V14C0 15.103 0.897 16 2 16H5.586L9 19.414L12.414 16H16C17.103 16 18 15.103 18 14V2C18 0.897 17.103 0 16 0ZM16 14H11.586L9 16.586L6.414 14H2V2H16V14Z" fill="black"/>
<path d="M12 10C13.1046 10 14 9.10457 14 8C14 6.89543 13.1046 6 12 6C10.8954 6 10 6.89543 10 8C10 9.10457 10.8954 10 12 10Z" fill="black"/>
<path d="M6 10C7.10457 10 8 9.10457 8 8C8 6.89543 7.10457 6 6 6C4.89543 6 4 6.89543 4 8C4 9.10457 4.89543 10 6 10Z" fill="black"/>
</svg>
