<svg width="20" height="20" viewBox="0 0 20 20" fill="none" xmlns="http://www.w3.org/2000/svg">
<path d="M18 0H2C0.897 0 0 0.897 0 2V14C0 15.103 0.897 16 2 16H5V19.767L11.277 16H18C19.103 16 20 15.103 20 14V2C20 0.897 19.103 0 18 0ZM18 14H10.723L7 16.233V14H2V2H18V14Z" fill="black"/>
<path d="M11.803 7.18902L10.404 5.79102L6.53497 9.65502V11.054H7.93397L11.803 7.18902Z" fill="black"/>
<path d="M12.1296 4.06622L13.5282 5.4649L12.4619 6.5312L11.0632 5.13252L12.1296 4.06622Z" fill="black"/>
</svg>
