<svg width="22" height="24" viewBox="0 0 22 24" fill="none" xmlns="http://www.w3.org/2000/svg">
<path d="M17.4377 16.977C16.9675 16.489 16.5174 15.98 16.1846 15.593C15.8436 15.215 15.6383 14.94 15.6383 14.94L13.0716 13.603C14.0616 12.37 14.6666 10.763 14.6666 9C14.6666 5.141 11.7883 2 8.24998 2C4.71165 2 1.83331 5.141 1.83331 9C1.83331 12.859 4.71165 16 8.24998 16C9.86606 16 11.3391 15.34 12.4694 14.261L13.695 17.061C13.695 17.061 13.9471 17.285 14.2936 17.657C14.6483 18.02 15.1149 18.511 15.5622 19.024C16.0151 19.53 16.4679 20.036 16.8071 20.416C17.1389 20.804 17.3607 21.062 17.3607 21.062L19.305 18.941C19.305 18.941 19.0685 18.699 18.7128 18.337C18.3654 17.965 17.9016 17.471 17.4377 16.977ZM8.24998 14C5.72273 14 3.66665 11.757 3.66665 9C3.66665 6.243 5.72273 4 8.24998 4C10.7772 4 12.8333 6.243 12.8333 9C12.8333 11.757 10.7772 14 8.24998 14Z" fill="black"/>
</svg>
