<svg width="18" height="20" viewBox="0 0 18 20" fill="none" xmlns="http://www.w3.org/2000/svg">
<path d="M5.648 12.711L8.997 16L12.347 12.711C13.218 11.857 13.218 10.501 12.347 9.64198C11.472 8.78698 10.092 8.78698 9.221 9.64198L8.997 9.86098L8.773 9.64198C7.903 8.78698 6.523 8.78698 5.648 9.64198C4.777 10.501 4.777 11.856 5.648 12.711Z" fill="black"/>
<path d="M16 2H14V0H12V2H6V0H4V2H2C0.897 2 0 2.897 0 4V6V18C0 19.103 0.897 20 2 20H16C17.103 20 18 19.103 18 18V6V4C18 2.897 17.103 2 16 2ZM16.002 18H2V6H16L16.002 18Z" fill="black"/>
</svg>
