<svg width="20" height="18" viewBox="0 0 20 18" fill="none" xmlns="http://www.w3.org/2000/svg">
<path d="M9.001 7H11.001V12H9.001V7ZM9 13H11V15H9V13Z" fill="black"/>
<path d="M11.768 1.2C11.42 0.545 10.742 0.138 10 0.138C9.25804 0.138 8.58004 0.545001 8.23204 1.201L0.894039 15.064C0.563039 15.69 0.583039 16.425 0.948039 17.032C1.31304 17.638 1.95304 18 2.66104 18H17.339C18.047 18 18.688 17.638 19.053 17.032C19.417 16.426 19.438 15.69 19.107 15.064L11.768 1.2ZM2.66104 16L10 2.137L17.344 16H2.66104Z" fill="black"/>
</svg>
