<svg width="20" height="20" viewBox="0 0 20 20" fill="none" xmlns="http://www.w3.org/2000/svg">
<path d="M2.222 17.778C3.197 18.753 4.477 19.24 5.757 19.24C7.038 19.239 8.319 18.753 9.293 17.778L12.121 14.949L10.707 13.535L7.879 16.364C6.71 17.531 4.807 17.533 3.636 16.364C2.467 15.194 2.467 13.291 3.636 12.121L6.465 9.293L5.051 7.879L2.222 10.707C0.273004 12.656 0.273004 15.829 2.222 17.778ZM17.778 9.293C19.726 7.344 19.726 4.171 17.778 2.222C15.828 0.272004 12.655 0.274004 10.707 2.222L7.879 5.051L9.293 6.465L12.121 3.636C13.291 2.469 15.194 2.467 16.364 3.636C17.533 4.806 17.533 6.709 16.364 7.879L13.535 10.707L14.949 12.121L17.778 9.293Z" fill="black"/>
<path d="M6.46362 14.9504L5.04943 13.5361L13.5356 5.0503L14.9498 6.46454L6.46362 14.9504Z" fill="black"/>
</svg>
