<svg width="20" height="20" viewBox="0 0 20 20" fill="none" xmlns="http://www.w3.org/2000/svg">
<path d="M10 0C4.486 0 0 3.589 0 8C0 10.908 1.898 13.515 5 14.934V20L10.339 15.995C15.697 15.852 20 12.32 20 8C20 3.589 15.514 0 10 0ZM10 14H9.667L7 16V13.583L6.359 13.336C3.67 12.301 2 10.256 2 8C2 4.691 5.589 2 10 2C14.411 2 18 4.691 18 8C18 11.309 14.411 14 10 14Z" fill="black"/>
<path d="M8.99997 9.58603L6.70697 7.29303L5.29297 8.70703L8.99997 12.414L15.207 6.20703L13.793 4.79303L8.99997 9.58603Z" fill="black"/>
</svg>
