<svg width="20" height="20" viewBox="0 0 20 20" fill="none" xmlns="http://www.w3.org/2000/svg">
<path d="M10 0C4.486 0 0 3.589 0 8C0 10.908 1.898 13.515 5 14.934V20L10.34 15.995C15.697 15.852 20 12.32 20 8C20 3.589 15.514 0 10 0ZM10 14H9.667L7 16V13.583L6.359 13.336C3.67 12.301 2 10.256 2 8C2 4.691 5.589 2 10 2C14.411 2 18 4.691 18 8C18 11.309 14.411 14 10 14Z" fill="black"/>
<path d="M12.293 4.29303L10 6.58603L7.70703 4.29303L6.29303 5.70703L8.58603 8.00003L6.29303 10.293L7.70703 11.707L10 9.41403L12.293 11.707L13.707 10.293L11.414 8.00003L13.707 5.70703L12.293 4.29303Z" fill="black"/>
</svg>
