<svg width="20" height="19" viewBox="0 0 20 19" fill="none" xmlns="http://www.w3.org/2000/svg">
<path d="M14 0H6C2.691 0 0 2.691 0 6V18C0 18.552 0.447 19 1 19H14C17.309 19 20 16.309 20 13V6C20 2.691 17.309 0 14 0ZM18 13C18 15.206 16.206 17 14 17H2V6C2 3.794 3.794 2 6 2H14C16.206 2 18 3.794 18 6V13Z" fill="black"/>
<path d="M7.5 11C8.32843 11 9 10.3284 9 9.5C9 8.67157 8.32843 8 7.5 8C6.67157 8 6 8.67157 6 9.5C6 10.3284 6.67157 11 7.5 11Z" fill="black"/>
<path d="M12.5 11C13.3284 11 14 10.3284 14 9.5C14 8.67157 13.3284 8 12.5 8C11.6716 8 11 8.67157 11 9.5C11 10.3284 11.6716 11 12.5 11Z" fill="black"/>
</svg>
