<svg width="129" height="24" viewBox="0 0 129 24" fill="none" xmlns="http://www.w3.org/2000/svg">
<g clip-path="url(#clip0)">
<path d="M25.3343 8.50286C25.3343 3.77143 21.4896 0 16.7522 0C15.3104 0 13.9373 0.342857 12.7015 1.02857C11.4657 0.342857 10.0239 0 8.58209 0C3.84478 0 0 3.77143 0 8.50286V9.53143C0 10.2857 0.137313 11.3143 0.823881 13.5771C2.19702 17.8286 8.85672 24 12.7015 24C16.5463 24 22.3821 18.24 24.2358 13.7829C25.2657 11.3143 25.3343 9.94286 25.3343 9.53143C25.3343 9.39429 25.3343 9.18857 25.3343 9.05143C25.3343 8.84571 25.3343 8.70857 25.3343 8.50286Z" fill="#D4649A"/>
<path d="M16.7523 0C21.4896 0 25.2657 3.84 25.2657 8.57143C25.2657 13.3029 21.4209 17.0743 16.6836 17.0743C12.0149 17.0743 8.17017 13.2343 8.17017 8.57143C8.17017 3.84 12.0149 0 16.7523 0Z" fill="#FF93C7"/>
<path d="M12.7015 16.0455C8.58212 13.8512 6.93435 8.70832 9.13137 4.59403C9.95525 3.08546 11.1911 1.85118 12.7015 1.02832C16.8209 3.22261 18.4 8.43403 16.203 12.5483C15.3791 13.9883 14.1433 15.2226 12.7015 16.0455Z" fill="#A9507B"/>
<path d="M38.7752 10.773C38.7752 9.01953 37.6578 7.44141 35.0792 7.44141C31.9848 7.44141 29.75 9.63325 29.75 13.7539C29.75 17.1732 31.1253 19.365 34.5635 19.365C36.7983 19.365 38.7752 18.3129 38.7752 18.3129L38.0016 16.6471C38.0016 16.6471 36.1106 17.4362 34.7354 17.4362C33.0163 17.4362 32.4146 16.2964 32.2427 14.8937C36.2826 14.8937 38.7752 12.9648 38.7752 10.773ZM32.3286 13.2279C32.3286 11.299 32.8444 9.28255 34.8213 9.28255C35.6809 9.28255 36.1966 9.8086 36.1966 10.773C36.2826 11.8251 35.1651 13.2279 32.3286 13.2279ZM43.073 10.1593C42.8151 8.49349 42.0415 7.7921 42.0415 7.7921L39.8926 8.58116C39.8926 8.58116 41.0101 9.8086 41.0101 13.4909V19.2774H43.5887V12.9648C43.5887 11.299 44.7921 10.1593 45.8235 10.1593C46.5971 10.1593 46.9409 10.4223 46.9409 10.4223L47.7145 7.87977C47.7145 7.87977 46.9409 7.61675 46.3392 7.61675C44.964 7.61675 43.7606 8.40582 43.073 10.1593ZM56.9976 10.773C56.9976 9.01953 55.8802 7.44141 53.3016 7.44141C50.2072 7.44141 47.8005 9.63325 47.8005 13.7539C47.8005 17.1732 49.1757 19.365 52.6139 19.365C54.8488 19.365 56.8257 18.3129 56.8257 18.3129L56.0521 16.6471C56.0521 16.6471 54.1611 17.4362 52.7858 17.4362C51.0668 17.4362 50.4651 16.2964 50.2932 14.8937C54.5049 14.8937 56.9976 12.9648 56.9976 10.773ZM50.551 13.2279C50.551 11.299 51.0668 9.28255 53.1297 9.28255C53.9892 9.28255 54.5049 9.8086 54.5049 10.773C54.5049 11.8251 53.3875 13.2279 50.551 13.2279ZM63.1864 12.4388C61.983 11.9128 61.2954 11.299 61.2954 10.4223C61.2954 9.8086 61.897 9.37023 62.4987 9.37023C63.6161 9.37023 65.0774 10.1593 65.0774 10.1593L65.8509 8.40582C65.8509 8.40582 64.2178 7.52908 62.4128 7.52908C60.1779 7.52908 58.5448 9.01953 58.5448 10.8607C58.5448 12.7018 59.5763 13.6662 61.8111 14.543C62.9285 14.8937 63.4442 15.6827 63.4442 16.4718C63.4442 17.2609 62.9285 17.6116 61.983 17.6116C60.8656 17.6116 58.9746 16.4718 58.9746 16.4718L58.201 18.4883C58.201 18.4883 60.3499 19.628 62.1549 19.628C64.6476 19.628 66.0229 17.9622 66.0229 16.2088C66.1948 14.1046 65.0774 13.2279 63.1864 12.4388Z" fill="#53273C"/>
<path d="M81.2873 7.26563C79.912 7.26563 78.7946 7.704 77.9351 8.84376C77.4193 7.79167 76.5598 7.26563 75.2705 7.26563C73.6373 7.26563 72.2621 7.96702 71.4885 9.45747C71.1446 8.05469 70.457 7.26563 70.457 7.26563L67.5345 8.23004C67.5345 8.23004 68.8239 9.45747 68.8239 13.2274V19.4523H72.5199V13.3151C72.5199 11.3863 73.2935 10.1589 74.0671 10.1589C74.7547 10.1589 74.8407 10.8603 74.8407 12V19.4523H78.5367V13.1398C78.5367 11.2986 79.3103 10.1589 80.0839 10.1589C80.7716 10.1589 80.8575 10.8603 80.8575 12V19.4523H84.5536V11.474C84.4676 8.93143 83.694 7.26563 81.2873 7.26563ZM96.8451 13.6658V7.96702C96.8451 7.96702 94.1805 7.26563 92.2035 7.26563C88.7653 7.26563 86.3586 9.98351 86.3586 13.5781C86.3586 17.1728 87.8198 19.5399 90.8283 19.5399C92.4614 19.5399 93.4929 18.6632 94.0086 17.1728C94.2664 18.7509 95.126 19.5399 95.126 19.5399L98.1344 18.5755C98.1344 18.6632 96.8451 17.4358 96.8451 13.6658ZM93.149 13.0521C93.149 15.0686 92.3754 16.8221 91.4299 16.8221C90.3125 16.8221 90.2266 15.1563 90.2266 13.4028C90.2266 11.474 90.6563 10.0712 92.1176 10.0712C92.3754 10.0712 92.8912 10.1589 93.0631 10.2465V13.0521H93.149ZM112.231 7.26563C110.856 7.26563 109.738 7.704 108.879 8.84376C108.363 7.79167 107.503 7.26563 106.128 7.26563C104.495 7.26563 103.12 7.96702 102.432 9.45747C102.088 8.05469 101.401 7.26563 101.401 7.26563L98.3923 8.23004C98.3923 8.23004 99.6816 9.45747 99.6816 13.2274V19.4523H103.378V13.3151C103.378 11.3863 104.151 10.1589 104.925 10.1589C105.612 10.1589 105.698 10.8603 105.698 12V19.4523H109.394V13.1398C109.394 11.2986 110.168 10.1589 110.942 10.1589C111.629 10.1589 111.715 10.8603 111.715 12V19.4523H115.411V11.474C115.411 8.93143 114.638 7.26563 112.231 7.26563ZM128.39 1.74219L125.984 -0.625L121.686 4.46007L123.233 6.12587C123.233 6.12587 126.413 4.19705 128.39 1.74219ZM127.789 13.6658V7.96702C127.789 7.96702 125.124 7.26563 123.147 7.26563C119.623 7.26563 117.302 9.98351 117.302 13.5781C117.302 17.1728 118.764 19.5399 121.772 19.5399C123.491 19.5399 124.437 18.6632 124.952 17.1728C125.21 18.7509 126.07 19.5399 126.07 19.5399L128.992 18.5755C128.992 18.6632 127.789 17.4358 127.789 13.6658ZM124.093 13.0521C124.093 15.0686 123.319 16.8221 122.374 16.8221C121.256 16.8221 121.17 15.1563 121.17 13.4028C121.17 11.474 121.6 10.0712 123.147 10.0712C123.405 10.0712 123.921 10.1589 124.093 10.2465V13.0521Z" fill="#D4649A"/>
</g>
<defs>
<clipPath id="clip0">
<rect width="129" height="24" fill="white"/>
</clipPath>
</defs>
</svg>
