<svg width="76" height="68" viewBox="0 0 76 68" fill="none" xmlns="http://www.w3.org/2000/svg">
<path d="M62.0966 28.7674C61.0667 23.3182 58.7774 18.1909 55.4146 13.8021C59.2125 9.21757 63.7719 5.33467 68.8891 2.32709C87.529 45.3583 53.3611 65.1686 53.3611 65.1686H52.7766C61.0066 55.654 64.2291 43.1271 62.0966 28.7674Z" fill="#FF93C7"/>
<path d="M8.84603 42.8708C16.846 43.1534 24.6668 45.3377 31.6721 49.2458C30.646 47.1863 29.8563 45.0154 29.3184 42.7752C26.1591 29.5311 30.5347 13.0358 35.1789 0.47702C41.8293 2.8039 48.9693 8.78046 53.8821 15.7133C56.8509 19.6608 58.8731 24.2485 59.79 29.1167C62.2227 45.4208 57.3573 57.2305 49.459 65.3427L49.1115 65.7092C49.1115 65.7092 32.6831 68.5302 19.8405 62.4739C4.97587 55.4295 1.26367 43.6836 1.26367 43.6836C3.74153 43.0592 6.29345 42.7856 8.84603 42.8708Z" fill="#419FB9"/>
<path d="M53.8824 15.7134L53.6138 15.3309C45.8424 26.1024 41.746 39.1278 41.9402 52.4493C41.9349 57.1077 42.406 61.7542 43.3461 66.315C45.2764 66.2315 47.201 66.0453 49.1118 65.7572C49.2382 65.6456 49.3488 65.5022 49.4751 65.3747C57.3734 57.2306 62.223 45.4209 59.7903 29.1168C58.8734 24.2487 56.8512 19.6609 53.8824 15.7134Z" fill="#265E6C"/>
</svg>
