<svg width="384" height="66" viewBox="0 0 384 66" fill="none" xmlns="http://www.w3.org/2000/svg">
<path d="M60.9445 27.9213C59.9337 22.6324 57.6869 17.6559 54.3865 13.3962C58.1139 8.94649 62.5888 5.1778 67.611 2.25867C85.9051 44.0243 52.371 63.2519 52.371 63.2519H51.7974C59.8747 54.0171 63.0374 41.8587 60.9445 27.9213Z" fill="#FF93C7"/>
<path d="M8.68191 41.6099C16.5335 41.8842 24.2092 44.0042 31.0845 47.7974C30.0774 45.7985 29.3024 43.6914 28.7744 41.5171C25.6737 28.6625 29.9682 12.6524 34.5262 0.463013C41.0532 2.72145 48.0608 8.52223 52.8824 15.2511C55.7962 19.0826 57.7808 23.5354 58.6807 28.2604C61.0682 44.0849 56.2931 55.5472 48.5414 63.4208L48.2003 63.7766C48.2003 63.7766 32.0767 66.5146 19.4723 60.6365C4.88356 53.7993 1.24023 42.3988 1.24023 42.3988C3.67212 41.7927 6.17669 41.5272 8.68191 41.6099Z" fill="#419FB9"/>
<path d="M52.8827 15.2513L52.6191 14.88C44.9919 25.3347 40.9715 37.977 41.1621 50.9067C41.1568 55.4281 41.6192 59.9379 42.5419 64.3645C44.4364 64.2835 46.3252 64.1028 48.2006 63.8231C48.3247 63.7149 48.4332 63.5756 48.5572 63.4519C56.309 55.5474 61.0686 44.085 58.681 28.2605C57.7811 23.5355 55.7965 19.0827 52.8827 15.2513Z" fill="#265E6C"/>
<path d="M113.516 48.6552L111.626 29.09L105.12 48.6552H98.9085L92.1083 28.8379L90.4707 48.6552H84.259L87.6174 18.9515C88.5002 18.4917 89.9268 18.0705 90.9343 18.0705C93.2852 18.0705 95.0477 18.7824 95.761 20.8765L102.772 41.7409L109.95 19.0345C110.833 18.4472 112.006 18.0705 113.139 18.0705C115.531 18.0705 116.705 18.907 117.086 21.8821L120.444 48.6522H113.516V48.6552Z" fill="#419FB9"/>
<path d="M140.337 42.5395L142.896 46.6033C140.292 48.2377 137.398 49.0741 133.873 49.0741C127.197 49.0741 123.253 45.1765 123.253 38.5589C123.253 31.3539 127.408 27.038 134.503 27.038C139.835 27.038 142.941 29.7195 142.941 34.1184C142.941 38.3512 139.038 40.8636 132.529 40.8636C131.605 40.8636 130.684 40.7806 129.759 40.6945C130.22 42.9162 131.605 44.2125 134.333 44.2125C136.726 44.2155 138.655 43.6281 140.337 42.5395ZM129.632 37.052C130.597 37.1351 131.563 37.1766 132.443 37.1766C135.13 37.1766 136.64 36.171 136.64 34.4121C136.64 32.9883 135.632 32.0658 133.87 32.0658C131.519 32.0658 129.967 33.9078 129.632 37.052Z" fill="#419FB9"/>
<path d="M147.679 58.7109L144.781 54.0599C146.041 53.6001 146.963 52.2179 146.963 49.5779V27.4588H153.468V50.7526C153.471 55.3176 150.954 57.4532 147.679 58.7109ZM150.199 24.1901C152.425 24.1901 153.81 22.9324 153.81 20.7137C153.81 18.5365 152.425 17.3203 150.199 17.3203C147.973 17.3203 146.588 18.5365 146.588 20.7137C146.588 22.9324 147.973 24.1901 150.199 24.1901Z" fill="#419FB9"/>
<path d="M156.739 38.0575C156.739 31.1462 160.894 27.038 168.03 27.038C175.166 27.038 179.366 31.1433 179.366 38.0575C179.366 44.9718 175.169 49.077 168.03 49.077C160.891 49.077 156.739 44.9688 156.739 38.0575ZM172.774 38.0575C172.774 34.3705 171.011 32.1518 168.072 32.1518C165.132 32.1518 163.37 34.3735 163.37 38.0575C163.37 41.7445 165.132 43.9217 168.072 43.9217C171.011 43.9217 172.774 41.7445 172.774 38.0575Z" fill="#419FB9"/>
<path d="M197.907 27.7499L196.017 33.4895C195.303 33.0298 194.379 32.7361 193.371 32.7361C190.685 32.7361 189.005 34.5366 189.005 39.775V48.6558H182.5V27.919C183.632 27.4147 184.85 27.038 185.983 27.038C187.745 27.038 188.794 28.5449 188.794 30.725C190.349 28.002 192.489 27.038 194.67 27.038C195.806 27.038 196.941 27.3317 197.907 27.7499Z" fill="#419FB9"/>
<path d="M211.008 49.0781C204.124 49.0781 200.008 44.9728 200.008 38.017C200.008 31.1057 204.544 27.042 210.461 27.042C213.065 27.042 217.261 28.0891 218.605 32.9922L213.861 34.8788C213.314 33.2444 212.307 32.1558 210.797 32.1558C208.152 32.1558 206.6 34.336 206.6 38.02C206.6 41.7486 208.49 43.9258 211.552 43.9258C213.525 43.9258 215.793 43.2139 217.261 42.1253L219.318 46.6488C217.011 48.3247 213.906 49.0781 211.008 49.0781Z" fill="#265E6C"/>
<path d="M220.191 38.0546C220.191 31.1433 224.346 27.0351 231.482 27.0351C238.618 27.0351 242.818 31.1403 242.818 38.0546C242.818 44.9688 238.618 49.0741 231.482 49.0741C224.346 49.0741 220.191 44.9659 220.191 38.0546ZM236.226 38.0546C236.226 34.3676 234.463 32.1489 231.524 32.1489C228.585 32.1489 226.822 34.3705 226.822 38.0546C226.822 41.7416 228.585 43.9188 231.524 43.9188C234.463 43.9188 236.226 41.7416 236.226 38.0546Z" fill="#265E6C"/>
<path d="M266.562 34.9964V48.6529H260.056V36.1266C260.056 33.6972 259.007 32.1459 257.034 32.1459C254.222 32.1459 252.459 33.6527 252.459 38.0961V48.6529H245.953V27.9161C247.086 27.4118 248.304 27.0351 249.437 27.0351C251.116 27.0351 252.165 28.4174 252.248 30.47C254.052 27.9131 256.531 27.0351 259.132 27.0351C263.834 27.0351 266.562 29.9687 266.562 34.9964Z" fill="#265E6C"/>
<path d="M291.685 21.0051L288.832 25.6146C287.028 24.3569 284.549 23.4374 282.073 23.4374C279.764 23.4374 278.379 24.4429 278.379 26.0358C278.379 28.1715 280.813 29.0109 283.752 30.058C287.741 31.4818 292.443 33.2852 292.443 39.3156C292.443 45.515 288.16 49.0774 280.899 49.0774C276.911 49.0774 273.216 47.9473 270.53 45.9362L272.669 41.1606C274.726 42.7534 277.707 43.7174 281.232 43.7174C283.96 43.7174 285.556 42.5873 285.556 40.7008C285.556 38.313 283.122 37.432 280.308 36.471C276.319 35.0887 271.493 33.3713 271.493 27.0028C271.493 21.2216 275.395 18.0804 281.945 18.0804C285.262 18.0745 288.787 19.0385 291.685 21.0051Z" fill="#FF93C7"/>
<path d="M314.266 35.0028V48.1995C313.134 48.7008 311.957 49.0805 310.783 49.0805C309.145 49.0805 308.096 47.7398 307.971 45.8117C306.25 48.2411 303.941 49.0805 301.632 49.0805C297.394 49.0805 294.832 46.6096 294.832 42.5874C294.832 38.147 298.568 35.5486 305.16 35.5486C305.998 35.5486 306.88 35.5486 307.763 35.5901C307.638 33.2853 306.797 31.9031 304.069 31.9031C302.223 31.9031 300.333 32.4904 298.654 33.579L296.05 29.5568C298.737 27.9224 301.635 27.0444 305.16 27.0444C310.908 27.0414 314.266 29.975 314.266 35.0028ZM307.757 39.3157C306.874 39.2741 306.078 39.2741 305.323 39.2741C302.553 39.2741 300.999 40.2797 300.999 41.9971C300.999 43.3379 301.754 44.3019 303.433 44.3019C305.659 44.3019 307.757 42.9196 307.757 39.3157Z" fill="#FF93C7"/>
<path d="M318.837 42.919V16.8608C319.97 16.3595 321.188 15.9798 322.321 15.9798C324.253 15.9798 325.343 17.2375 325.343 18.9964V42.3732C325.343 43.3788 325.89 43.9246 326.853 43.9246C327.525 43.9246 328.155 43.8 328.657 43.6309L329.498 47.7362C328.072 48.6587 326.601 49.0769 324.797 49.0769C321.064 49.0769 318.837 46.8582 318.837 42.919Z" fill="#FF93C7"/>
<path d="M354.503 30.0575V48.1989C353.37 48.7002 352.152 49.0799 351.019 49.0799C349.34 49.0799 348.333 47.6976 348.208 45.7281C346.529 48.1989 344.178 49.0799 341.743 49.0799C337.042 49.0799 334.313 46.1463 334.313 41.1186V27.9219C335.446 27.4176 336.664 27.0409 337.797 27.0409C339.728 27.0409 340.819 28.2986 340.819 30.0575V39.9439C340.819 42.4148 341.868 43.9246 343.842 43.9246C346.445 43.9246 347.997 42.4178 347.997 38.0604V27.9219C349.129 27.4176 350.348 27.0409 351.48 27.0409C353.412 27.0409 354.503 28.2986 354.503 30.0575Z" fill="#FF93C7"/>
<path d="M379.772 18.9959V48.1954C378.64 48.6967 377.421 49.0764 376.289 49.0764C374.651 49.0764 373.602 47.6941 373.477 45.7661C371.673 48.237 369.111 49.0764 366.552 49.0764C361.639 49.0764 358.408 45.2648 358.408 38.7688C358.408 31.3532 362.774 27.0374 370.163 27.0374C370.96 27.0374 372.053 27.0789 373.269 27.1204V16.8573C374.401 16.356 375.62 15.9763 376.752 15.9763C378.678 15.9793 379.772 17.237 379.772 18.9959ZM373.263 31.899C372.297 31.8575 371.459 31.8575 370.746 31.8575C367.221 31.8575 364.995 34.4144 364.995 38.7688C364.995 42.0376 366.421 43.9626 368.983 43.9626C371.504 43.9626 373.266 42.4973 373.266 38.0539V31.899H373.263Z" fill="#FF93C7"/>
</svg>
